<svg xmlns="http://www.w3.org/2000/svg" width="512" height="160" fill="none" viewBox="0 0 512 160">
  <title>A2A Mesh</title>
  <defs>
    <linearGradient id="meshGrad" x1="0%" x2="100%" y1="0%" y2="100%">
      <stop offset="0%" stop-color="#4F46E5" />
      <stop offset="100%" stop-color="#06B6D4" />
    </linearGradient>
    <filter id="nodeGlow" width="200%" height="200%" x="-50%" y="-50%">
      <feGaussianBlur result="blur" stdDeviation="3" />
      <feComposite in="SourceGraphic" in2="blur" operator="over" />
    </filter>
  </defs>
  <rect width="512" height="160" fill="#0F172A" rx="28" />
  <rect width="128" height="128" x="16" y="16" fill="#020617" rx="24" />
  <rect width="128" height="128" x="16" y="16" fill="none" stroke="#1E293B" stroke-width="2" rx="24" />
  <path stroke="url(#meshGrad)" stroke-linejoin="round" stroke-width="4.5" d="M80 40 L45 105 L115 105 Z" />
  <path stroke="#06B6D4" stroke-linecap="round" stroke-width="4" d="M62.5 72.5 L97.5 72.5" />
  <path
    stroke="#4F46E5"
    stroke-linecap="round"
    stroke-opacity=".9"
    stroke-width="2.5"
    d="M80 40 L80 85 M45 105 L80 85 M115 105 L80 85 M62.5 72.5 L80 85 M97.5 72.5 L80 85"
  />
  <circle cx="80" cy="40" r="6" fill="#FFF" filter="url(#nodeGlow)" />
  <circle cx="45" cy="105" r="5" fill="#06B6D4" filter="url(#nodeGlow)" />
  <circle cx="115" cy="105" r="5" fill="#06B6D4" filter="url(#nodeGlow)" />
  <circle cx="62.5" cy="72.5" r="4.5" fill="#FFF" />
  <circle cx="97.5" cy="72.5" r="4.5" fill="#FFF" />
  <circle cx="80" cy="85" r="7" fill="#4F46E5" filter="url(#nodeGlow)" />
  <text x="172" y="80" font-family="system-ui, -apple-system, sans-serif" font-size="52">
    <tspan fill="#FFF" font-weight="800">a2a</tspan>
    <tspan fill="#94A3B8" font-weight="600">-mesh</tspan>
  </text>
  <text x="175" y="118" fill="#94A3B8" font-family="system-ui, -apple-system, sans-serif" font-size="21" font-weight="500">
    Agent2Agent Protocol Toolkit
  </text>
</svg>
